HIERARCHY
ROOT Hips
{
	OFFSET 0.000000 0.000000 0.000000
	CHANNELS 6 Xposition Yposition Zposition Xrotation Yrotation Zrotation
	JOINT Chest
	{
		OFFSET 0.000000 0.009282 11.569106
		CHANNELS 3 Xrotation Yrotation Zrotation
		JOINT Chest2
		{
			OFFSET 0.000000 -0.016863 9.269641
			CHANNELS 3 Xrotation Yrotation Zrotation
			JOINT Chest3
			{
				OFFSET 0.000000 0.000000 8.374491
				CHANNELS 3 Xrotation Yrotation Zrotation
				JOINT Chest4
				{
					OFFSET 0.000000 0.000000 8.374493
					CHANNELS 3 Xrotation Yrotation Zrotation
					JOINT Neck
					{
						OFFSET 0.000000 -0.000001 12.152554
						CHANNELS 3 Xrotation Yrotation Zrotation
						JOINT Head
						{
							OFFSET 0.000000 -0.040100 7.802319
							CHANNELS 3 Xrotation Yrotation Zrotation
							End Site
							{
								OFFSET 0.000000 -0.020946 14.853096
							}
						}
					}
					JOINT RightCollar
					{
						OFFSET -2.894404 0.000000 6.791374
						CHANNELS 3 Xrotation Yrotation Zrotation
						JOINT RightShoulder
						{
							OFFSET -13.574684 0.000000 0.000000
							CHANNELS 3 Xrotation Yrotation Zrotation
							JOINT RightElbow
							{
								OFFSET -23.923903 0.000000 0.000000
								CHANNELS 3 Xrotation Yrotation Zrotation
								JOINT RightWrist
								{
									OFFSET -19.846718 -0.012765 0.000000
									CHANNELS 3 Xrotation Yrotation Zrotation
									End Site
									{
										OFFSET -14.973145 0.000000 0.000000
									}
								}
							}
						}
					}
					JOINT LeftCollar
					{
						OFFSET 2.894404 0.000000 6.791374
						CHANNELS 3 Xrotation Yrotation Zrotation
						JOINT LeftShoulder
						{
							OFFSET 13.574684 0.000000 0.000000
							CHANNELS 3 Xrotation Yrotation Zrotation
							JOINT LeftElbow
							{
								OFFSET 23.923903 0.000000 0.000000
								CHANNELS 3 Xrotation Yrotation Zrotation
								JOINT LeftWrist
								{
									OFFSET 19.846718 -0.012765 0.000000
									CHANNELS 3 Xrotation Yrotation Zrotation
									End Site
									{
										OFFSET 14.973145 0.000000 0.000000
									}
								}
							}
						}
					}
				}
			}
		}
	}
	JOINT RightHip
	{
		OFFSET -9.469263 -0.004642 0.045487
		CHANNELS 3 Xrotation Yrotation Zrotation
		JOINT RightKnee
		{
			OFFSET 0.000000 -0.002666 -40.478676
			CHANNELS 3 Xrotation Yrotation Zrotation
			JOINT RightAnkle
			{
				OFFSET 0.000000 -0.049110 -35.224068
				CHANNELS 3 Xrotation Yrotation Zrotation
				JOINT RightToe
				{
					OFFSET 0.000000 -12.539530 -6.151390
					CHANNELS 3 Xrotation Yrotation Zrotation
					End Site
					{
						OFFSET 0.000000 -5.044995 -1.291870
					}
				}
			}
		}
	}
	JOINT LeftHip
	{
		OFFSET 9.469263 -0.004642 0.045487
		CHANNELS 3 Xrotation Yrotation Zrotation
		JOINT LeftKnee
		{
			OFFSET 0.000000 -0.002666 -40.478676
			CHANNELS 3 Xrotation Yrotation Zrotation
			JOINT LeftAnkle
			{
				OFFSET 0.000000 -0.049110 -35.224068
				CHANNELS 3 Xrotation Yrotation Zrotation
				JOINT LeftToe
				{
					OFFSET 0.000000 -12.539530 -6.151390
					CHANNELS 3 Xrotation Yrotation Zrotation
					End Site
					{
						OFFSET 0.000000 -5.044995 -1.291870
					}
				}
			}
		}
	}
}
MOTION
Frames: 15
Frame Time: 0.016667
-12.347938 -5.620133 82.946808 2.196423 6.353245 -108.760606 4.020132 0.101487 0.464908 1.786182 0.041011 0.206536 1.786182 0.041011 0.206537 1.339650 0.030154 0.155026 14.919836 -0.373728 -2.720211 -8.443956 0.343488 -5.086882 -21.310750 -0.443786 -1.809713 -51.201427 -37.295893 31.611639 -52.486507 -34.290931 24.621167 -41.970403 30.003051 11.884675 -14.231625 0.028650 -4.746785 -56.879514 33.073606 -28.330279 -43.852386 29.502562 -26.759411 -41.945373 -38.434786 -12.508020 9.527837 0.445461 -3.011801 3.071995 -2.075000 -6.063379 -5.608939 1.374467 1.186111 0.007488 0.014388 -0.003188 10.218369 0.504383 1.552732 1.786612 -0.612716 1.278497 -5.245452 0.656441 1.277305 0.008084 -0.025476 0.004327 
-12.345668 -5.627207 82.946648 2.190745 6.335027 -108.767655 4.003909 0.091426 0.468231 1.778629 0.036584 0.207794 1.778629 0.036584 0.207794 1.333984 0.026833 0.155958 14.930198 -0.371780 -2.747239 -8.423838 0.356769 -5.135323 -21.313443 -0.440872 -1.791869 -51.231391 -37.322694 31.564384 -52.479222 -34.311472 24.641410 -41.924664 29.912609 11.795708 -14.239273 0.045187 -4.743037 -56.921366 33.102184 -28.284099 -43.906150 29.572991 -26.760903 -41.989455 -38.464863 -12.542573 9.506970 0.451000 -3.019878 3.067773 -2.073964 -6.056622 -5.602238 1.364307 1.183735 0.007796 0.015985 -0.003778 10.201386 0.503624 1.587951 1.777149 -0.602340 1.267559 -5.237444 0.657583 1.276690 0.007524 -0.028313 0.005382 
-12.345196 -5.634033 82.946243 2.185392 6.314390 -108.777108 4.001970 0.079979 0.458048 1.777527 0.031283 0.203001 1.777527 0.031283 0.203002 1.333156 0.022872 0.152341 14.905542 -0.363163 -2.762215 -8.468834 0.378997 -5.159268 -21.368465 -0.450238 -1.746557 -51.199815 -37.322363 31.556136 -52.526241 -34.332629 24.643936 -41.937898 29.889816 11.771564 -14.294718 0.068243 -4.701798 -56.907965 33.115090 -28.271410 -43.979752 29.621311 -26.767445 -41.995292 -38.417806 -12.501447 9.484079 0.458754 -3.034212 3.064908 -2.074198 -6.037680 -5.597101 1.352756 1.198048 0.008605 0.017706 -0.004300 10.185692 0.503571 1.624332 1.764928 -0.597056 1.262122 -5.229607 0.663257 1.246284 0.006990 -0.030821 0.005534 
-12.346831 -5.639989 82.946236 2.179122 6.296908 -108.783911 4.009079 0.078136 0.456271 1.780643 0.030281 0.201968 1.780643 0.030281 0.201966 1.335493 0.022123 0.151566 14.883283 -0.363898 -2.776406 -8.509761 0.383850 -5.185291 -21.386892 -0.449966 -1.742159 -51.223758 -37.337021 31.548715 -52.610181 -34.371032 24.627753 -42.015861 29.947647 11.825932 -14.259279 0.054527 -4.702276 -57.006692 33.115919 -28.228419 -44.050014 29.678374 -26.793184 -41.999400 -38.367556 -12.447352 9.467530 0.464117 -3.043749 3.058373 -2.071619 -6.024815 -5.591783 1.340881 1.199521 0.008799 0.019783 -0.004827 10.173320 0.509501 1.638304 1.752467 -0.596699 1.274742 -5.220596 0.670072 1.231261 0.005456 -0.033088 0.005791 
-12.348128 -5.644210 82.946823 2.170534 6.279274 -108.786574 4.020797 0.079976 0.452854 1.786175 0.031287 0.200461 1.786175 0.031287 0.200464 1.339642 0.022880 0.150443 14.847153 -0.370396 -2.785515 -8.576782 0.376871 -5.204228 -21.411661 -0.459130 -1.726548 -51.311981 -37.364014 31.498715 -52.670283 -34.421882 24.606045 -42.114246 30.030146 11.921685 -14.271259 0.042859 -4.705515 -57.066135 33.116507 -28.204293 -44.124443 29.742950 -26.807897 -42.044903 -38.356877 -12.453501 9.452402 0.469556 -3.035928 3.047175 -2.069046 -6.033983 -5.584298 1.329052 1.197845 0.008403 0.021569 -0.004499 10.157897 0.511730 1.638089 1.743637 -0.591603 1.285623 -5.210628 0.675817 1.228785 0.002402 -0.034368 0.006043 
-12.348913 -5.646432 82.947525 2.163132 6.264135 -108.788337 4.018665 0.084124 0.442412 1.785576 0.033260 0.195681 1.785578 0.033260 0.195684 1.339194 0.024373 0.146861 14.801826 -0.376259 -2.786698 -8.661103 0.368434 -5.208501 -21.445956 -0.473967 -1.708869 -51.364693 -37.432722 31.440174 -52.724218 -34.477309 24.599428 -42.186527 30.047781 11.978270 -14.328040 0.055159 -4.699073 -57.039890 33.105790 -28.198185 -44.206292 29.811430 -26.825623 -42.099271 -38.333142 -12.456867 9.438304 0.471520 -3.016350 3.039125 -2.064014 -6.058184 -5.578496 1.315862 1.205741 0.007589 0.023698 -0.004183 10.144039 0.510194 1.638667 1.737949 -0.583001 1.289787 -5.202056 0.681064 1.218492 -0.000442 -0.035598 0.006284 
-12.350148 -5.646979 82.947464 2.157437 6.251767 -108.789102 4.012034 0.086693 0.431932 1.782650 0.034583 0.190753 1.782650 0.034583 0.190754 1.336999 0.025381 0.143167 14.766411 -0.379464 -2.785676 -8.726974 0.363599 -5.207759 -21.438451 -0.489947 -1.686482 -51.440019 -37.506027 31.386324 -52.805401 -34.538614 24.593570 -42.220104 29.987672 11.969194 -14.286083 0.048116 -4.682441 -57.119933 33.130331 -28.180532 -44.283019 29.887368 -26.851263 -42.145170 -38.350375 -12.473134 9.427014 0.471584 -2.997499 3.033562 -2.060334 -6.080854 -5.574085 1.306732 1.213192 0.006120 0.023889 -0.003038 10.132895 0.510520 1.645702 1.734739 -0.578709 1.288894 -5.197379 0.685800 1.218471 -0.001211 -0.034871 0.005438 
-12.350922 -5.646253 82.946075 2.157322 6.233028 -108.793698 4.013951 0.087447 0.431886 1.783357 0.034756 0.190444 1.783357 0.034756 0.190448 1.337529 0.025511 0.142935 14.741404 -0.388363 -2.787276 -8.773662 0.349009 -5.213991 -21.425124 -0.503294 -1.666562 -51.548220 -37.558657 31.323876 -52.911379 -34.619801 24.580683 -42.254340 29.929899 11.941528 -14.273915 0.048216 -4.707731 -57.212120 33.150426 -28.147356 -44.323782 29.949526 -26.891556 -42.167884 -38.380585 -12.509102 9.414571 0.465378 -2.988475 3.020647 -2.059834 -6.093739 -5.567027 1.303303 1.226841 0.006355 0.022089 -0.002074 10.120229 0.502791 1.655640 1.728341 -0.574177 1.291941 -5.197625 0.691745 1.211642 0.002938 -0.034063 0.004689 
-12.353035 -5.644121 82.944557 2.154519 6.215849 -108.800590 4.024999 0.090090 0.440412 1.787924 0.035764 0.194397 1.787924 0.035764 0.194393 1.340954 0.026256 0.145905 14.709279 -0.395663 -2.793786 -8.833375 0.339457 -5.228529 -21.469132 -0.504468 -1.665617 -51.629659 -37.632573 31.260649 -52.971477 -34.676806 24.581878 -42.297978 29.942098 11.956791 -14.361156 0.060070 -4.733622 -57.241739 33.201481 -28.122076 -44.308407 29.968592 -26.928379 -42.152731 -38.378512 -12.506165 9.405737 0.460442 -2.989804 3.006385 -2.056097 -6.101159 -5.561849 1.298292 1.234177 0.007236 0.020789 -0.002365 10.109117 0.495758 1.667539 1.722329 -0.565224 1.288998 -5.197105 0.692126 1.206993 0.004830 -0.030652 0.004679 
-12.358198 -5.643111 82.944168 2.150240 6.205684 -108.805398 4.032084 0.091720 0.444534 1.791062 0.036162 0.196474 1.791062 0.036162 0.196470 1.343308 0.026546 0.147465 14.680228 -0.391525 -2.798615 -8.887002 0.349938 -5.235678 -21.523924 -0.512874 -1.665180 -51.688884 -37.709280 31.223875 -52.968021 -34.688588 24.575297 -42.367318 29.993901 12.041526 -14.410448 0.065492 -4.740501 -57.286350 33.252291 -28.102675 -44.315418 29.981156 -26.933517 -42.163041 -38.343326 -12.488186 9.404143 0.464362 -3.006080 2.994784 -2.057364 -6.094531 -5.559163 1.290474 1.242748 0.007664 0.021937 -0.003012 10.105915 0.497951 1.671787 1.715225 -0.565222 1.298019 -5.195328 0.695563 1.199866 0.004763 -0.027266 0.004299 
-12.365337 -5.643385 82.944649 2.146265 6.201602 -108.808936 4.034462 0.089386 0.448944 1.792440 0.034950 0.198661 1.792440 0.034950 0.198660 1.344342 0.025630 0.149100 14.663639 -0.378821 -2.808110 -8.917046 0.377269 -5.248101 -21.552010 -0.510385 -1.669245 -51.720419 -37.767067 31.224999 -52.942336 -34.654720 24.572251 -42.415447 30.073405 12.125661 -14.385306 0.060166 -4.744926 -57.383991 33.282118 -28.081633 -44.376968 30.015864 -26.889546 -42.209323 -38.326360 -12.491404 9.408415 0.469283 -3.028356 2.985224 -2.055129 -6.077798 -5.557546 1.280711 1.247433 0.007539 0.022517 -0.003672 10.106526 0.504281 1.670928 1.713654 -0.569564 1.306565 -5.195196 0.699659 1.188661 0.002942 -0.023943 0.004176 
-12.372702 -5.643308 82.944794 2.142637 6.194419 -108.810494 4.033453 0.086321 0.453426 1.792105 0.033554 0.200690 1.792105 0.033554 0.200688 1.344090 0.024578 0.150614 14.656061 -0.367165 -2.816520 -8.930422 0.401928 -5.258952 -21.602871 -0.508414 -1.676183 -51.665006 -37.780891 31.254932 -52.973482 -34.651373 24.554180 -42.437601 30.126076 12.171260 -14.414373 0.062119 -4.750224 -57.391710 33.285909 -28.067570 -44.454174 30.054130 -26.843523 -42.268066 -38.334263 -12.506978 9.405881 0.474811 -3.037233 2.984693 -2.055472 -6.068054 -5.561613 1.270460 1.253722 0.007693 0.023405 -0.004302 10.102821 0.508166 1.667335 1.714363 -0.569547 1.313665 -5.197105 0.700971 1.202502 0.002180 -0.022131 0.004599 
-12.377349 -5.645426 82.944664 2.138143 6.186755 -108.810337 4.027585 0.085082 0.456198 1.789887 0.032881 0.201802 1.789886 0.032881 0.201796 1.342426 0.024070 0.151445 14.649472 -0.356185 -2.814000 -8.942330 0.421184 -5.250191 -21.658637 -0.512877 -1.677608 -51.569772 -37.779443 31.281693 -53.050619 -34.705243 24.536264 -42.454919 30.104868 12.171377 -14.445089 0.067262 -4.743686 -57.363467 33.290605 -28.067631 -44.496374 30.070464 -26.831432 -42.313790 -38.371856 -12.538661 9.396112 0.479957 -3.039993 2.991945 -2.054737 -6.061715 -5.567116 1.260272 1.254940 0.007710 0.023999 -0.004600 10.093805 0.510785 1.656272 1.721037 -0.569758 1.330577 -5.197817 0.705395 1.193832 -0.000336 -0.021322 0.004699 
-12.381051 -5.647251 82.944939 2.135540 6.185415 -108.807338 4.022251 0.083944 0.455550 1.787497 0.032294 0.201273 1.787498 0.032294 0.201268 1.340634 0.023633 0.151050 14.640476 -0.340078 -2.808316 -8.958632 0.448650 -5.233734 -21.680600 -0.515444 -1.668622 -51.565104 -37.799817 31.260355 -53.117316 -34.812993 24.520605 -42.509830 30.052966 12.177002 -14.468673 0.085527 -4.751470 -57.343236 33.288389 -28.064183 -44.498887 30.073907 -26.853918 -42.338205 -38.410952 -12.572066 9.391568 0.482477 -3.032687 3.001838 -2.050606 -6.059766 -5.573432 1.249076 1.244840 0.007061 0.024470 -0.004061 10.088564 0.514195 1.646972 1.730482 -0.568560 1.345252 -5.196347 0.709909 1.187927 -0.004087 -0.022664 0.004615 
-12.383703 -5.650380 82.945236 2.131271 6.184181 -108.801683 4.021628 0.085144 0.452195 1.787192 0.032767 0.199596 1.787193 0.032767 0.199596 1.340405 0.023992 0.149793 14.620005 -0.323345 -2.806947 -8.996076 0.479333 -5.224846 -21.727786 -0.523329 -1.652830 -51.591219 -37.844149 31.213667 -53.147669 -34.936015 24.531412 -42.557621 30.019590 12.165993 -14.524069 0.099710 -4.750303 -57.317950 33.297603 -28.046777 -44.504078 30.090993 -26.888066 -42.347255 -38.419876 -12.580119 9.389190 0.484447 -3.027312 3.004950 -2.042968 -6.056788 -5.576785 1.235674 1.225351 0.007598 0.025518 -0.003972 10.082142 0.515220 1.642316 1.739832 -0.563291 1.347337 -5.194641 0.715654 1.183134 -0.006594 -0.025766 0.004704 
